<?xml version="1.0" encoding="iso-8859-1"?>
<!-- Uploaded to: SVG Repo, www.svgrepo.com, Generator: SVG Repo Mixer Tools -->
<!DOCTYPE svg PUBLIC "-//W3C//DTD SVG 1.1//EN" "http://www.w3.org/Graphics/SVG/1.1/DTD/svg11.dtd">
<svg fill="#000000" version="1.1" id="Capa_1" xmlns="http://www.w3.org/2000/svg" xmlns:xlink="http://www.w3.org/1999/xlink" 
	 width="800px" height="800px" viewBox="0 0 474.597 474.597"
	 xml:space="preserve">
<g>
	<g>
		<path d="M200.086,150.601c-16.095,0-16.095,24.96,0,24.96C216.178,175.562,216.178,150.601,200.086,150.601z"/>
		<path d="M282.763,172.441c16.093,0,16.093-24.958,0-24.958C266.666,147.483,266.661,172.441,282.763,172.441z"/>
		<path d="M296.794,191.156c-30.986-1.379-61.568,0.531-92.227,5.126c-15.874,2.377-9.1,26.426,6.634,24.064
			c28.404-4.252,56.912-5.512,85.592-4.232C312.896,216.833,312.825,191.872,296.794,191.156z"/>
		<path d="M459.37,293.495c-0.817-5.561-4.728-10.963-11.694-11.867c-20.348-2.625-40.73-4.199-61.226-4.55
			c-0.249-8.363-0.528-16.722-0.736-25.09c-0.264-10.436-10.867-14.066-18.174-10.943c-0.274-0.005-0.559-0.016-0.838-0.021
			c-4.443-46.191-7.633-92.478-10.634-138.786c-0.487-7.521-6.281-11.476-12.161-11.928c-1.062-0.303-2.179-0.526-3.438-0.551
			c-11.853-0.247-23.694-0.348-35.536-0.381V76.011c0.559-1.274,0.873-2.669,0.873-4.128c0-4.047-0.294-8.013-0.853-11.997
			c3.732-1.43,7.17-3.646,10.034-6.853c18.006-20.134-8.628-53.1-31.864-46.936c-14.3,3.798-27.224,21.632-22.82,36.447
			c2.909,9.791,14.218,16.364,23.811,18.304c0.035,0.521,0.07,1.033,0.167,1.554c0.03,0.163,0.188,1.265,0.265,1.742
			c0.056,0.681,0.111,1.363,0.152,2.049c0.04,0.779,0.025,1.566,0.035,2.351c-0.518,1.221-0.822,2.61-0.822,4.207v16.762
			c-33.921,0.308-67.789,1.493-101.613,4.073c0,0,0-33.502,0.046-33.66c1.34-4.402,10.92-10.077,13.556-14.916
			c3.395-6.221,4.852-13.028,3.676-20.053c-2.303-13.804-13.447-24.621-27.794-24.917c-0.299-0.005-0.566,0.094-0.855,0.117
			c-6.513-0.614-12.576,0.566-18.466,3.946c-1.643,0.947-2.897,2.331-3.776,3.905c-6.421,5.032-11.834,11.293-13.208,19.677
			c-1.648,10.103,2.58,18.517,8.727,26.212c0.541,0.675,1.19,1.196,1.891,1.643c1.056,0.83,2.278,1.498,3.626,1.935
			c3.752,1.221,7.627,2.277,11.552,3.019v34.835c-7.34,0.681-14.683,1.399-22.026,2.214c-6.246,0.693-10.008,5.015-11.347,9.872
			c-0.764,1.609-1.216,3.499-1.137,5.728c1.554,43.96,2.584,87.854,0.269,131.794c-6.914,0.838-13.835,1.742-20.746,2.803
			c-7.229,1.107-9.719,6.698-8.846,12.233c-0.198,0.908-0.312,1.873-0.312,2.92c-0.005,4.793-0.025,9.587-0.045,14.386
			c-0.958-0.214-1.971-0.351-3.072-0.346c-22.475,0.117-44.793,1.798-67.075,4.683c-6.972,0.898-10.877,6.307-11.7,11.867
			c-0.398,1.143-0.706,2.355-0.785,3.732c-3.036,55.096-4.836,110.242-7.8,165.349c-0.863,16.087,24.103,16.006,24.961,0
			c2.818-52.445,4.616-104.941,7.398-157.387c18.271-1.996,36.587-3.189,55-3.286c1.063-0.005,2.046-0.132,2.973-0.34
			c-0.264,51.603-0.577,103.194,1.706,154.767c0.706,16.031,25.672,16.098,24.958,0c-2.74-61.911-1.747-123.847-1.587-185.793
			c79.282-10.907,159.321-6.495,239.097-4.682c1.67,59.859,4.28,119.688,5.824,179.557c0.416,16.062,25.38,16.103,24.963,0
			c-1.238-47.804-3.168-95.593-4.753-143.382c16.188,0.311,32.312,1.396,48.398,3.154c2.788,52.445,4.58,104.941,7.398,157.387
			c0.858,16.006,25.821,16.087,24.958,0c-2.955-55.102-4.758-110.253-7.799-165.35C460.081,295.852,459.776,294.638,459.37,293.495z
			 M282.601,35.255c-4.271-7.005,9.562-10.161,16.041-2.072c6.83,8.597-7.947,9.232-12.781,5.487
			C284.302,37.459,283.245,36.309,282.601,35.255z M158.487,38.183c-4.024-5.69-2.059-10.088,3.717-14.16
			c1.107-0.779,1.925-1.691,2.6-2.646c0.629-0.208,1.254-0.422,1.894-0.584c0.071-0.016,0.086-0.025,0.145-0.041
			c0.14,0.005,0.292,0.005,0.562-0.005c0.515-0.021,3.225,0.383,0.713-0.048c0.845,0.145,1.688,0.193,2.526,0.188
			c0.386,0.051,0.749,0.183,1.145,0.188c0.186,0,0.373,0.021,0.561,0.025c0.134,0.036,1.247,0.155,1.623,0.249
			c0.17,0.043,0.487,0.168,0.784,0.292c0.374,0.203,0.724,0.437,1.082,0.665c-0.947-0.452,1.216,1.811,1.155,1.399
			c0.2,0.333,0.398,0.67,0.581,1.013c0.01,0.079,0.173,0.457,0.343,0.874v9.501c0,0.371,0.079,0.724,0.114,1.082
			c-0.134,0.213-0.307,0.396-0.432,0.625c-0.175,0.332-0.378,0.64-0.561,0.962c-0.223,0.264-1.031,1.361-1.335,1.678
			c-0.218,0.213-0.459,0.412-0.688,0.615c-0.104,0.065-0.186,0.124-0.338,0.233c-0.056,0.035-0.125,0.056-0.18,0.094
			C168.938,40.774,163.733,39.736,158.487,38.183z M152.127,242.335c2.003-40.37,1.206-80.705-0.149-121.092
			c59.839-6,119.822-7.632,179.95-6.645c2.753,41.99,5.738,83.957,9.76,125.853C278.355,238.866,215.16,236.84,152.127,242.335z"/>
		<path d="M210.188,355.31c-0.051-0.792-0.188-1.528-0.368-2.225c0.165-5.321-3.164-10.775-10.031-10.775H156.89
			c-4.466,0-7.409,2.326-8.902,5.398c-3.074,1.493-5.397,4.433-5.397,8.901c0,17.778-0.046,35.556-1.3,53.299
			c-0.188,2.609,0.472,4.687,1.633,6.276c0.67,3.123,2.943,5.723,7.299,6.347c17.364,2.488,34.647,2.966,52.166,2.971
			c1.211,0,2.278-0.218,3.275-0.533c5.398,0.249,10.557-3.001,9.725-9.866C212.981,395.228,211.519,375.281,210.188,355.31z
			 M162.458,403.221c0.729-13.36,0.858-26.73,0.892-40.111h26.601c0.968,13.873,2.029,27.736,3.489,41.563
			C183.098,404.586,172.749,404.297,162.458,403.221z"/>
		<path d="M319.386,341.01c-23.821,1.214-47.657,1.3-71.498,1.3c-13.416,0-13.416,20.8,0,20.8c23.841,0,47.677-0.086,71.498-1.3
			C332.726,361.129,332.796,340.324,319.386,341.01z"/>
		<path d="M319.386,385.209c-24.689,1.295-49.373,2.498-74.098,2.6c-13.411,0.051-13.417,20.85,0,20.799
			c24.725-0.102,49.408-1.305,74.098-2.6C332.726,405.308,332.796,384.508,319.386,385.209z"/>
		<path d="M168.59,289.012c-13.416,0-13.416,20.799,0,20.799S182.006,289.012,168.59,289.012z"/>
		<path d="M217.988,287.711c-13.416,0-13.416,20.8,0,20.8S231.404,287.711,217.988,287.711z"/>
		<path d="M276.486,287.711c-13.416,0-13.416,20.8,0,20.8S289.902,287.711,276.486,287.711z"/>
	</g>
</g>
</svg>